<svg width="187" height="181" viewBox="0 0 187 181" fill="none" xmlns="http://www.w3.org/2000/svg">
<path d="M88 23C88 23 88 24.5 88 25C88 25.5 95.5 28 96 28C96.5 28 82.5 31.5 82 31.5C81.5 31.5 88 34.9659 88 35.5C88 36.0341 88 37 88 37" stroke="#454343" stroke-width="4"/>
<path d="M84 125C84.1518 136.99 103.157 137.01 102.999 125" stroke="#454343" stroke-width="6" stroke-linecap="round"/>
<path d="M30 73.5C36.2333 64.9618 41.202 62.8257 52 62.5" stroke="#454343" stroke-width="6" stroke-linecap="round"/>
<path d="M132 63C143.135 63.1751 148.009 65.489 154 74" stroke="#454343" stroke-width="6" stroke-linecap="round" stroke-linejoin="round"/>
<path d="M73 104C88.7607 99.5217 97.5175 99.5598 113 104" stroke="#454343" stroke-width="6"/>
<path d="M145 47.5H43C31 47.5 15.5 59 15.5 71V132C15.5 144 29 155.5 42 155.5H72C71.2516 165.356 61.0405 173.644 60 176.5C58.9595 179.356 84.9726 170.778 97 155.5H145C157 155.5 171.391 144 171.5 132C171.609 120 171.5 84 171.5 72C171.5 60 157 47.5 145 47.5Z" stroke="#454343" stroke-width="6" stroke-linecap="round" stroke-linejoin="round"/>
<rect x="114" y="84" width="47" height="48" rx="10" stroke="#454343" stroke-width="6"/>
<rect x="25" y="84" width="47" height="48" rx="10" stroke="#454343" stroke-width="6"/>
<rect x="3" y="88" width="12" height="41" rx="4" stroke="#454343" stroke-width="6"/>
<rect x="172" y="88" width="12" height="41" rx="4" stroke="#454343" stroke-width="6"/>
<rect x="75.5" y="39.5" width="27" height="8" rx="4" stroke="#454343" stroke-width="5"/>
<circle cx="88" cy="12" r="9" stroke="#454343" stroke-width="6"/>
<circle cx="49" cy="108" r="7.5" stroke="#454343"/>
<circle cx="46" cy="105" r="2.5" stroke="#454343"/>
<circle cx="50" cy="104" r="1.5" stroke="#454343"/>
<path d="M161.5 110.5L171 102" stroke="#454343" stroke-width="6"/>
<path d="M24 112L15 106" stroke="#454343" stroke-width="6"/>
<mask id="path-18-inside-1" fill="white">
<ellipse cx="49" cy="111.5" rx="6" ry="3.5"/>
</mask>
<path d="M51 111.5C51 111.012 51.1795 110.667 51.2902 110.514C51.3838 110.385 51.4068 110.415 51.2272 110.52C50.8544 110.737 50.0759 111 49 111V119C51.2378 119 53.4593 118.479 55.2581 117.43C56.9588 116.438 59 114.48 59 111.5H51ZM49 111C47.9241 111 47.1456 110.737 46.7728 110.52C46.5932 110.415 46.6162 110.385 46.7098 110.514C46.8205 110.667 47 111.012 47 111.5H39C39 114.48 41.0412 116.438 42.7419 117.43C44.5407 118.479 46.7622 119 49 119V111ZM47 111.5C47 111.988 46.8205 112.333 46.7098 112.486C46.6162 112.615 46.5932 112.585 46.7728 112.48C47.1456 112.263 47.9241 112 49 112V104C46.7622 104 44.5407 104.521 42.7419 105.57C41.0412 106.562 39 108.52 39 111.5H47ZM49 112C50.0759 112 50.8544 112.263 51.2272 112.48C51.4068 112.585 51.3838 112.615 51.2902 112.486C51.1795 112.333 51 111.988 51 111.5H59C59 108.52 56.9588 106.562 55.2581 105.57C53.4593 104.521 51.2378 104 49 104V112Z" fill="#454343" mask="url(#path-18-inside-1)"/>
<mask id="path-20-inside-2" fill="white">
<ellipse cx="52.2898" cy="109.424" rx="5.5" ry="3.5" transform="rotate(-47.7156 52.2898 109.424)"/>
</mask>
<path d="M53.299 108.314C53.0025 108.044 52.8725 107.743 52.828 107.566C52.7891 107.411 52.8206 107.387 52.7959 107.53C52.7432 107.835 52.509 108.44 51.9199 109.087L57.8384 114.47C59.293 112.87 60.3295 110.914 60.6789 108.893C61.0187 106.929 60.7592 104.285 58.6815 102.396L53.299 108.314ZM51.9199 109.087C51.3308 109.735 50.751 110.026 50.4524 110.107C50.3124 110.145 50.3337 110.111 50.4913 110.135C50.6721 110.163 50.984 110.264 51.2806 110.534L45.8981 116.452C47.9758 118.342 50.6323 118.35 52.5559 117.825C54.5338 117.286 56.3838 116.069 57.8384 114.47L51.9199 109.087ZM51.2806 110.534C51.5772 110.803 51.7071 111.104 51.7517 111.282C51.7905 111.436 51.759 111.461 51.7837 111.318C51.8365 111.013 52.0706 110.408 52.6597 109.76L46.7412 104.378C45.2866 105.977 44.2502 107.934 43.9008 109.954C43.561 111.919 43.8204 114.562 45.8981 116.452L51.2806 110.534ZM52.6597 109.76C53.2488 109.112 53.8286 108.822 54.1272 108.741C54.2672 108.703 54.246 108.736 54.0883 108.712C53.9076 108.685 53.5956 108.584 53.299 108.314L58.6815 102.396C56.6038 100.506 53.9474 100.498 52.0237 101.022C50.0459 101.561 48.1958 102.778 46.7412 104.378L52.6597 109.76Z" fill="#454343" mask="url(#path-20-inside-2)"/>
<mask id="path-22-inside-3" fill="white">
<ellipse cx="53.1007" cy="103.519" rx="3.1202" ry="1.51565" transform="rotate(35.5405 53.1007 103.519)"/>
</mask>
<path d="M54.0122 104.17C54.2346 103.859 54.5158 103.753 54.6333 103.725C54.7345 103.701 54.738 103.724 54.6077 103.702C54.3473 103.658 53.8919 103.489 53.3823 103.125L51.0572 106.38C51.9497 107.018 52.961 107.48 53.9384 107.646C54.766 107.786 56.3285 107.809 57.2671 106.496L54.0122 104.17ZM53.3823 103.125C52.8726 102.761 52.5655 102.385 52.4392 102.153C52.3761 102.037 52.3992 102.033 52.4092 102.136C52.4208 102.256 52.4116 102.557 52.1892 102.868L48.9344 100.543C47.9958 101.857 48.5245 103.327 48.9257 104.065C49.3995 104.936 50.1646 105.742 51.0572 106.38L53.3823 103.125ZM52.1892 102.868C51.9668 103.179 51.6857 103.285 51.5682 103.314C51.467 103.338 51.4634 103.314 51.5938 103.337C51.8541 103.381 52.3095 103.549 52.8192 103.913L55.1443 100.659C54.2517 100.021 53.2405 99.5588 52.263 99.3929C51.4355 99.2525 49.873 99.2291 48.9344 100.543L52.1892 102.868ZM52.8192 103.913C53.3288 104.277 53.636 104.654 53.7622 104.886C53.8254 105.002 53.8023 105.006 53.7923 104.902C53.7807 104.782 53.7899 104.482 54.0122 104.17L57.2671 106.496C58.2056 105.182 57.677 103.711 57.2758 102.974C56.8019 102.103 56.0369 101.296 55.1443 100.659L52.8192 103.913Z" fill="#454343" mask="url(#path-22-inside-3)"/>
<mask id="path-24-inside-4" fill="white">
<path d="M53.1963 104.887C53.0591 105.079 52.8816 105.239 52.6781 105.353C52.4747 105.466 52.2507 105.532 52.0242 105.543L52.0386 104.06L53.1963 104.887Z"/>
</mask>
<path d="M53.1963 104.887C53.0591 105.079 52.8816 105.239 52.6781 105.353C52.4747 105.466 52.2507 105.532 52.0242 105.543L52.0386 104.06L53.1963 104.887Z" stroke="#454343" stroke-width="4" mask="url(#path-24-inside-4)"/>
<mask id="path-25-inside-5" fill="white">
<path d="M52.2434 104.044C52.3926 104.247 52.4105 104.54 52.295 104.886C52.1795 105.232 51.9357 105.616 51.5935 105.991C51.2513 106.366 50.8258 106.715 50.3694 106.995C49.913 107.275 49.4457 107.474 49.0251 107.567C48.6045 107.661 48.249 107.644 48.0025 107.521C47.756 107.397 47.6292 107.171 47.6378 106.87C47.6463 106.57 47.7899 106.208 48.0507 105.829C48.3116 105.451 48.6783 105.073 49.1057 104.741L50.0038 105.683L52.2434 104.044Z"/>
</mask>
<path d="M52.2434 104.044C52.3926 104.247 52.4105 104.54 52.295 104.886C52.1795 105.232 51.9357 105.616 51.5935 105.991C51.2513 106.366 50.8258 106.715 50.3694 106.995C49.913 107.275 49.4457 107.474 49.0251 107.567C48.6045 107.661 48.249 107.644 48.0025 107.521C47.756 107.397 47.6292 107.171 47.6378 106.87C47.6463 106.57 47.7899 106.208 48.0507 105.829C48.3116 105.451 48.6783 105.073 49.1057 104.741L50.0038 105.683L52.2434 104.044Z" stroke="#454343" stroke-width="4" mask="url(#path-25-inside-5)"/>
<path d="M50.9856 107.893C50.9858 107.893 50.9862 107.894 50.9866 107.897C50.9857 107.894 50.9855 107.893 50.9856 107.893ZM50.8222 107.789C50.9364 107.842 50.976 107.884 50.9869 107.9C50.9889 107.918 50.9877 107.976 50.9382 108.092C50.8613 108.272 50.6938 108.521 50.3977 108.812C49.8077 109.393 48.8458 110.007 47.6433 110.467C46.4409 110.926 45.3147 111.111 44.4878 111.072C44.0728 111.052 43.7821 110.979 43.6048 110.896C43.4906 110.843 43.451 110.8 43.4401 110.785C43.4381 110.767 43.4393 110.708 43.4888 110.593C43.5656 110.413 43.7332 110.164 44.0293 109.873C44.6193 109.292 45.5812 108.678 46.7837 108.218C47.9861 107.758 49.1123 107.574 49.9392 107.613C50.3542 107.632 50.6449 107.706 50.8222 107.789ZM43.4366 110.779C43.4367 110.779 43.4375 110.78 43.4386 110.783C43.437 110.781 43.4364 110.779 43.4366 110.779ZM43.4414 110.792C43.4412 110.792 43.4408 110.79 43.4404 110.788C43.4413 110.79 43.4415 110.792 43.4414 110.792ZM50.9884 107.902C50.99 107.904 50.9906 107.905 50.9904 107.905C50.9903 107.905 50.9895 107.904 50.9884 107.902Z" stroke="#454343" stroke-width="2"/>
<mask id="path-27-inside-6" fill="white">
<ellipse cx="43.3883" cy="108.738" rx="2.87629" ry="1.9187" transform="rotate(53.7268 43.3883 108.738)"/>
</mask>
<path d="M43.9067 109.444C44.1859 109.239 44.3663 109.368 44.1825 109.301C44.0143 109.24 43.7225 109.056 43.4538 108.69L40.229 111.056C40.9001 111.971 41.8055 112.692 42.813 113.059C43.8049 113.421 45.1397 113.501 46.2732 112.669L43.9067 109.444ZM43.4538 108.69C43.1851 108.324 43.0972 107.99 43.0892 107.811C43.0804 107.616 43.149 107.827 42.8698 108.031L40.5033 104.807C39.3697 105.638 39.0459 106.936 39.0932 107.99C39.1412 109.062 39.5579 110.142 40.229 111.056L43.4538 108.69ZM42.8698 108.031C42.5906 108.236 42.4102 108.108 42.594 108.175C42.7622 108.236 43.054 108.42 43.3227 108.786L46.5475 106.419C45.8764 105.505 44.971 104.784 43.9635 104.416C42.9716 104.055 41.6368 103.975 40.5033 104.807L42.8698 108.031ZM43.3227 108.786C43.5914 109.152 43.6793 109.486 43.6873 109.665C43.6961 109.86 43.6275 109.649 43.9067 109.444L46.2732 112.669C47.4068 111.837 47.7306 110.54 47.6833 109.485C47.6353 108.414 47.2186 107.334 46.5475 106.419L43.3227 108.786Z" fill="#454343" mask="url(#path-27-inside-6)"/>
<mask id="path-29-inside-7" fill="white">
<path d="M42.5006 108.909C42.2617 108.503 42.1 107.936 42.0432 107.306C41.9864 106.677 42.0382 106.024 42.1895 105.459C42.3409 104.894 42.5824 104.454 42.8725 104.212C43.1627 103.971 43.4833 103.945 43.7794 104.138L43.3614 106.771L42.5006 108.909Z"/>
</mask>
<path d="M42.5006 108.909C42.2617 108.503 42.1 107.936 42.0432 107.306C41.9864 106.677 42.0382 106.024 42.1895 105.459C42.3409 104.894 42.5824 104.454 42.8725 104.212C43.1627 103.971 43.4833 103.945 43.7794 104.138L43.3614 106.771L42.5006 108.909Z" stroke="#454343" stroke-width="4" mask="url(#path-29-inside-7)"/>
<mask id="path-30-inside-8" fill="white">
<ellipse cx="47.5" cy="101.684" rx="2.37508" ry="0.842032" transform="rotate(167.689 47.5 101.684)"/>
</mask>
<path d="M47.1335 101.764C47.2843 102.454 46.9692 102.931 46.874 103.054C46.7705 103.188 46.7052 103.21 46.7871 103.159C46.9347 103.068 47.2682 102.92 47.7469 102.815L46.894 98.9071C46.0912 99.0823 45.3046 99.3715 44.6774 99.7609C44.3718 99.9506 44.0054 100.225 43.71 100.607C43.4229 100.978 43.0252 101.699 43.2255 102.617L47.1335 101.764ZM47.7469 102.815C48.2256 102.711 48.5905 102.706 48.7629 102.728C48.8584 102.74 48.7898 102.747 48.6398 102.668C48.502 102.596 48.0172 102.294 47.8665 101.604L51.7745 100.751C51.5742 99.8331 50.9123 99.3433 50.4966 99.1255C50.0689 98.9013 49.6217 98.8049 49.2649 98.7598C48.5325 98.6671 47.6969 98.7318 46.894 98.9071L47.7469 102.815ZM47.8665 101.604C47.7157 100.913 48.0308 100.437 48.126 100.314C48.2295 100.18 48.2948 100.157 48.2129 100.208C48.0653 100.3 47.7318 100.448 47.2531 100.552L48.106 104.46C48.9088 104.285 49.6954 103.996 50.3226 103.607C50.6282 103.417 50.9946 103.143 51.29 102.761C51.5771 102.39 51.9748 101.669 51.7745 100.751L47.8665 101.604ZM47.2531 100.552C46.7744 100.657 46.4095 100.661 46.2371 100.639C46.1416 100.627 46.2102 100.621 46.3602 100.699C46.498 100.771 46.9828 101.073 47.1335 101.764L43.2255 102.617C43.4258 103.534 44.0877 104.024 44.5034 104.242C44.9311 104.466 45.3783 104.563 45.7351 104.608C46.4675 104.7 47.3031 104.636 48.106 104.46L47.2531 100.552Z" fill="#454343" mask="url(#path-30-inside-8)"/>
<mask id="path-32-inside-9" fill="white">
<path d="M48.8815 103.35C48.6394 103.664 48.3632 103.827 48.111 103.803C47.8589 103.779 47.6507 103.571 47.5303 103.223C47.4098 102.874 47.3867 102.413 47.4656 101.936C47.5446 101.459 47.7195 101.003 47.9534 100.666L48.4485 101.966L48.8815 103.35Z"/>
</mask>
<path d="M48.8815 103.35C48.6394 103.664 48.3632 103.827 48.111 103.803C47.8589 103.779 47.6507 103.571 47.5303 103.223C47.4098 102.874 47.3867 102.413 47.4656 101.936C47.5446 101.459 47.7195 101.003 47.9534 100.666L48.4485 101.966L48.8815 103.35Z" stroke="#454343" stroke-width="4" mask="url(#path-32-inside-9)"/>
<mask id="path-33-inside-10" fill="white">
<path d="M50.6974 100.333C51.1913 100.496 51.5106 100.765 51.5878 101.083C51.665 101.401 51.4941 101.742 51.1112 102.036C50.7283 102.33 50.1634 102.553 49.5356 102.657C48.9079 102.762 48.2664 102.74 47.7466 102.597L49.1559 101.445L50.6974 100.333Z"/>
</mask>
<path d="M50.6974 100.333C51.1913 100.496 51.5106 100.765 51.5878 101.083C51.665 101.401 51.4941 101.742 51.1112 102.036C50.7283 102.33 50.1634 102.553 49.5356 102.657C48.9079 102.762 48.2664 102.74 47.7466 102.597L49.1559 101.445L50.6974 100.333Z" stroke="#454343" stroke-width="4" mask="url(#path-33-inside-10)"/>
<circle cx="136.86" cy="108.085" r="7.5" stroke="#454343"/>
<circle cx="133.86" cy="105.085" r="2.5" stroke="#454343"/>
<circle cx="137.86" cy="104.085" r="1.5" stroke="#454343"/>
<mask id="path-37-inside-11" fill="white">
<ellipse cx="136.86" cy="111.585" rx="6" ry="3.5"/>
</mask>
<path d="M138.86 111.585C138.86 111.097 139.04 110.752 139.151 110.599C139.244 110.47 139.267 110.5 139.088 110.605C138.715 110.822 137.936 111.085 136.86 111.085V119.085C139.098 119.085 141.32 118.564 143.118 117.515C144.819 116.523 146.86 114.565 146.86 111.585H138.86ZM136.86 111.085C135.784 111.085 135.006 110.822 134.633 110.605C134.454 110.5 134.477 110.47 134.57 110.599C134.681 110.752 134.86 111.097 134.86 111.585H126.86C126.86 114.565 128.902 116.523 130.602 117.515C132.401 118.564 134.623 119.085 136.86 119.085V111.085ZM134.86 111.585C134.86 112.073 134.681 112.418 134.57 112.571C134.477 112.7 134.454 112.67 134.633 112.565C135.006 112.348 135.784 112.085 136.86 112.085V104.085C134.623 104.085 132.401 104.606 130.602 105.655C128.902 106.647 126.86 108.605 126.86 111.585H134.86ZM136.86 112.085C137.936 112.085 138.715 112.348 139.088 112.565C139.267 112.67 139.244 112.7 139.151 112.571C139.04 112.418 138.86 112.073 138.86 111.585H146.86C146.86 108.605 144.819 106.647 143.118 105.655C141.32 104.606 139.098 104.085 136.86 104.085V112.085Z" fill="#454343" mask="url(#path-37-inside-11)"/>
<mask id="path-39-inside-12" fill="white">
<ellipse cx="140.15" cy="109.509" rx="5.5" ry="3.5" transform="rotate(-47.7156 140.15 109.509)"/>
</mask>
<path d="M141.159 108.399C140.863 108.129 140.733 107.828 140.688 107.651C140.649 107.496 140.681 107.472 140.656 107.615C140.604 107.92 140.369 108.525 139.78 109.172L145.699 114.555C147.153 112.955 148.19 110.999 148.539 108.979C148.879 107.014 148.62 104.37 146.542 102.481L141.159 108.399ZM139.78 109.172C139.191 109.82 138.611 110.111 138.313 110.192C138.173 110.23 138.194 110.196 138.352 110.22C138.532 110.248 138.844 110.349 139.141 110.619L133.758 116.537C135.836 118.427 138.493 118.435 140.416 117.91C142.394 117.371 144.244 116.154 145.699 114.555L139.78 109.172ZM139.141 110.619C139.438 110.888 139.567 111.189 139.612 111.367C139.651 111.521 139.619 111.546 139.644 111.403C139.697 111.098 139.931 110.493 140.52 109.845L134.602 104.463C133.147 106.062 132.111 108.019 131.761 110.039C131.421 112.004 131.681 114.648 133.758 116.537L139.141 110.619ZM140.52 109.845C141.109 109.198 141.689 108.907 141.988 108.826C142.128 108.788 142.106 108.821 141.949 108.797C141.768 108.77 141.456 108.669 141.159 108.399L146.542 102.481C144.464 100.591 141.808 100.583 139.884 101.107C137.906 101.646 136.056 102.863 134.602 104.463L140.52 109.845Z" fill="#454343" mask="url(#path-39-inside-12)"/>
<mask id="path-41-inside-13" fill="white">
<ellipse cx="140.961" cy="103.604" rx="3.1202" ry="1.51565" transform="rotate(35.5405 140.961 103.604)"/>
</mask>
<path d="M141.873 104.256C142.095 103.944 142.376 103.838 142.494 103.81C142.595 103.786 142.598 103.809 142.468 103.787C142.208 103.743 141.752 103.574 141.243 103.21L138.918 106.465C139.81 107.103 140.821 107.565 141.799 107.731C142.626 107.871 144.189 107.895 145.127 106.581L141.873 104.256ZM141.243 103.21C140.733 102.846 140.426 102.47 140.3 102.238C140.236 102.122 140.26 102.118 140.27 102.221C140.281 102.342 140.272 102.642 140.05 102.953L136.795 100.628C135.856 101.942 136.385 103.412 136.786 104.15C137.26 105.021 138.025 105.827 138.918 106.465L141.243 103.21ZM140.05 102.953C139.827 103.264 139.546 103.371 139.429 103.399C139.327 103.423 139.324 103.399 139.454 103.422C139.714 103.466 140.17 103.634 140.68 103.998L143.005 100.744C142.112 100.106 141.101 99.6439 140.123 99.478C139.296 99.3376 137.733 99.3142 136.795 100.628L140.05 102.953ZM140.68 103.998C141.189 104.363 141.496 104.739 141.623 104.971C141.686 105.087 141.663 105.091 141.653 104.987C141.641 104.867 141.65 104.567 141.873 104.256L145.127 106.581C146.066 105.267 145.537 103.796 145.136 103.059C144.662 102.188 143.897 101.381 143.005 100.744L140.68 103.998Z" fill="#454343" mask="url(#path-41-inside-13)"/>
<mask id="path-43-inside-14" fill="white">
<path d="M141.057 104.972C140.919 105.164 140.742 105.324 140.538 105.438C140.335 105.551 140.111 105.617 139.885 105.628L139.899 104.145L141.057 104.972Z"/>
</mask>
<path d="M141.057 104.972C140.919 105.164 140.742 105.324 140.538 105.438C140.335 105.551 140.111 105.617 139.885 105.628L139.899 104.145L141.057 104.972Z" stroke="#454343" stroke-width="4" mask="url(#path-43-inside-14)"/>
<mask id="path-44-inside-15" fill="white">
<path d="M140.104 104.129C140.253 104.332 140.271 104.625 140.155 104.971C140.04 105.318 139.796 105.702 139.454 106.076C139.112 106.451 138.686 106.8 138.23 107.08C137.773 107.36 137.306 107.559 136.885 107.652C136.465 107.746 136.109 107.73 135.863 107.606C135.616 107.482 135.49 107.256 135.498 106.955C135.507 106.655 135.65 106.293 135.911 105.915C136.172 105.536 136.539 105.158 136.966 104.826L137.864 105.769L140.104 104.129Z"/>
</mask>
<path d="M140.104 104.129C140.253 104.332 140.271 104.625 140.155 104.971C140.04 105.318 139.796 105.702 139.454 106.076C139.112 106.451 138.686 106.8 138.23 107.08C137.773 107.36 137.306 107.559 136.885 107.652C136.465 107.746 136.109 107.73 135.863 107.606C135.616 107.482 135.49 107.256 135.498 106.955C135.507 106.655 135.65 106.293 135.911 105.915C136.172 105.536 136.539 105.158 136.966 104.826L137.864 105.769L140.104 104.129Z" stroke="#454343" stroke-width="4" mask="url(#path-44-inside-15)"/>
<path d="M138.846 107.978C138.846 107.978 138.847 107.979 138.847 107.982C138.846 107.979 138.846 107.978 138.846 107.978ZM138.683 107.874C138.797 107.927 138.836 107.97 138.847 107.985C138.849 108.003 138.848 108.061 138.799 108.177C138.722 108.357 138.554 108.606 138.258 108.897C137.668 109.478 136.706 110.092 135.504 110.552C134.301 111.011 133.175 111.196 132.348 111.157C131.933 111.137 131.642 111.064 131.465 110.981C131.351 110.928 131.311 110.885 131.3 110.87C131.298 110.852 131.3 110.794 131.349 110.678C131.426 110.498 131.594 110.249 131.89 109.958C132.48 109.377 133.442 108.763 134.644 108.303C135.846 107.843 136.973 107.659 137.8 107.698C138.215 107.718 138.505 107.791 138.683 107.874ZM131.297 110.864C131.297 110.864 131.298 110.865 131.299 110.868C131.297 110.866 131.297 110.864 131.297 110.864ZM131.302 110.877C131.302 110.877 131.301 110.876 131.301 110.873C131.302 110.875 131.302 110.877 131.302 110.877ZM138.849 107.987C138.85 107.989 138.851 107.99 138.851 107.99C138.851 107.991 138.85 107.989 138.849 107.987Z" stroke="#454343" stroke-width="2"/>
<mask id="path-46-inside-16" fill="white">
<ellipse cx="131.249" cy="108.823" rx="2.87629" ry="1.9187" transform="rotate(53.7268 131.249 108.823)"/>
</mask>
<path d="M131.767 109.529C132.046 109.325 132.227 109.453 132.043 109.386C131.875 109.325 131.583 109.141 131.314 108.775L128.089 111.141C128.76 112.056 129.666 112.777 130.673 113.145C131.665 113.506 133 113.586 134.134 112.754L131.767 109.529ZM131.314 108.775C131.045 108.409 130.958 108.075 130.95 107.896C130.941 107.701 131.009 107.912 130.73 108.117L128.364 104.892C127.23 105.724 126.906 107.021 126.954 108.076C127.002 109.147 127.418 110.227 128.089 111.141L131.314 108.775ZM130.73 108.117C130.451 108.321 130.271 108.193 130.454 108.26C130.623 108.321 130.914 108.505 131.183 108.871L134.408 106.505C133.737 105.59 132.831 104.869 131.824 104.501C130.832 104.14 129.497 104.06 128.364 104.892L130.73 108.117ZM131.183 108.871C131.452 109.237 131.54 109.571 131.548 109.75C131.556 109.945 131.488 109.734 131.767 109.529L134.134 112.754C135.267 111.922 135.591 110.625 135.544 109.57C135.496 108.499 135.079 107.419 134.408 106.505L131.183 108.871Z" fill="#454343" mask="url(#path-46-inside-16)"/>
<mask id="path-48-inside-17" fill="white">
<path d="M130.361 108.994C130.122 108.588 129.96 108.021 129.904 107.392C129.847 106.762 129.899 106.109 130.05 105.544C130.201 104.979 130.443 104.539 130.733 104.298C131.023 104.056 131.344 104.03 131.64 104.223L131.222 106.856L130.361 108.994Z"/>
</mask>
<path d="M130.361 108.994C130.122 108.588 129.96 108.021 129.904 107.392C129.847 106.762 129.899 106.109 130.05 105.544C130.201 104.979 130.443 104.539 130.733 104.298C131.023 104.056 131.344 104.03 131.64 104.223L131.222 106.856L130.361 108.994Z" stroke="#454343" stroke-width="4" mask="url(#path-48-inside-17)"/>
<mask id="path-49-inside-18" fill="white">
<ellipse cx="135.36" cy="101.769" rx="2.37508" ry="0.842032" transform="rotate(167.689 135.36 101.769)"/>
</mask>
<path d="M134.994 101.849C135.145 102.539 134.83 103.016 134.734 103.139C134.631 103.273 134.566 103.295 134.647 103.244C134.795 103.153 135.129 103.005 135.607 102.9L134.754 98.9921C133.952 99.1673 133.165 99.4566 132.538 99.846C132.232 100.036 131.866 100.31 131.57 100.692C131.283 101.063 130.886 101.784 131.086 102.702L134.994 101.849ZM135.607 102.9C136.086 102.796 136.451 102.791 136.623 102.813C136.719 102.825 136.65 102.832 136.5 102.753C136.362 102.681 135.878 102.379 135.727 101.689L139.635 100.836C139.435 99.9182 138.773 99.4284 138.357 99.2105C137.929 98.9864 137.482 98.89 137.125 98.8448C136.393 98.7522 135.557 98.8169 134.754 98.9921L135.607 102.9ZM135.727 101.689C135.576 100.998 135.891 100.522 135.986 100.399C136.09 100.265 136.155 100.242 136.073 100.293C135.926 100.385 135.592 100.533 135.113 100.637L135.966 104.545C136.769 104.37 137.556 104.081 138.183 103.692C138.489 103.502 138.855 103.228 139.15 102.846C139.437 102.475 139.835 101.754 139.635 100.836L135.727 101.689ZM135.113 100.637C134.635 100.742 134.27 100.746 134.097 100.724C134.002 100.712 134.071 100.706 134.221 100.784C134.358 100.856 134.843 101.158 134.994 101.849L131.086 102.702C131.286 103.619 131.948 104.109 132.364 104.327C132.791 104.551 133.239 104.648 133.595 104.693C134.328 104.785 135.163 104.721 135.966 104.545L135.113 100.637Z" fill="#454343" mask="url(#path-49-inside-18)"/>
<mask id="path-51-inside-19" fill="white">
<path d="M136.742 103.435C136.5 103.75 136.224 103.912 135.971 103.888C135.719 103.864 135.511 103.656 135.391 103.308C135.27 102.96 135.247 102.498 135.326 102.021C135.405 101.544 135.58 101.089 135.814 100.751L136.309 102.051L136.742 103.435Z"/>
</mask>
<path d="M136.742 103.435C136.5 103.75 136.224 103.912 135.971 103.888C135.719 103.864 135.511 103.656 135.391 103.308C135.27 102.96 135.247 102.498 135.326 102.021C135.405 101.544 135.58 101.089 135.814 100.751L136.309 102.051L136.742 103.435Z" stroke="#454343" stroke-width="4" mask="url(#path-51-inside-19)"/>
<mask id="path-52-inside-20" fill="white">
<path d="M138.558 100.418C139.052 100.581 139.371 100.85 139.448 101.168C139.525 101.486 139.354 101.827 138.972 102.121C138.589 102.415 138.024 102.638 137.396 102.742C136.768 102.847 136.127 102.825 135.607 102.682L137.016 101.53L138.558 100.418Z"/>
</mask>
<path d="M138.558 100.418C139.052 100.581 139.371 100.85 139.448 101.168C139.525 101.486 139.354 101.827 138.972 102.121C138.589 102.415 138.024 102.638 137.396 102.742C136.768 102.847 136.127 102.825 135.607 102.682L137.016 101.53L138.558 100.418Z" stroke="#454343" stroke-width="4" mask="url(#path-52-inside-20)"/>
</svg>
